<!-- icon666.com - MILLIONS OF FREE VECTOR ICONS --><svg version="1.1" id="Capa_1" xmlns="http://www.w3.org/2000/svg" xmlns:xlink="http://www.w3.org/1999/xlink" x="0px" y="0px" viewBox="0 0 480 480" style="enable-background:new 0 0 480 480;" xml:space="preserve"><path style="fill:#81D4FA;" d="M328,480H40V320c0-44,36-80,80-80h128c44,0,80,36,80,80V480z"></path><path style="fill:#B3E5FC;" d="M144,240h-24c-44,0-80,36-80,80v160h24V320C64,276,100,240,144,240z"></path><g><path style="fill:#4FC3F7;" d="M224,240h24c44,0,80,36,80,80v160h-24V320C304,276,268,240,224,240z"></path><rect x="88" y="328" style="fill:#4FC3F7;" width="8" height="152"></rect><rect x="272" y="328" style="fill:#4FC3F7;" width="8" height="152"></rect></g><g><path style="fill:#FFC300;" d="M152,240L152,240v-40h64v40l0,0C201.6,264,166.4,264,152,240z"></path><path style="fill:#FFC300;" d="M200,220h-31.2c-44,0-80-35.2-80-80v-31.2c0-44,35.2-80,80-80H200c44,0,80,35.2,80,80V140 C280,184,244,220,200,220z"></path></g><path style="fill:#D1A000;" d="M280,108c0-44-36-80-80-80h-22.4c43.2,0.8,78.4,36,78.4,80v31.2c0,44-35.2,80-80,80h-9.6 c0.8,0,1.6,0,1.6,0h31.2c44,0,80-36,80-80L280,108z"></path><g><ellipse style="fill:#34444C;" cx="144.799" cy="121.598" rx="12" ry="12"></ellipse><ellipse style="fill:#34444C;" cx="224.004" cy="120.802" rx="12" ry="12"></ellipse><path style="fill:#34444C;" d="M184,181.6c-8,0-16-3.2-22.4-8.8c-1.6-1.6-1.6-4,0-5.6s4-1.6,5.6,0c4,4,10.4,6.4,16.8,6.4l0,0 c6.4,0,12-2.4,16.8-7.2c1.6-1.6,4-1.6,5.6,0s1.6,4,0,5.6C200,178.4,192,181.6,184,181.6z"></path></g><path style="fill:#FFD766;" d="M112.8,140v-31.2c0-44,35.2-80,80-80h9.6c-0.8,0-1.6,0-1.6,0h-31.2c-44,0-80,36-80,80V140 c0,44,36,80,80,80H192C148,219.2,112.8,184,112.8,140z"></path><g><path style="fill:#34444C;" d="M288,96L288,96V64c0-26.4-21.6-48-48-48l0,0v32C240,74.4,261.6,96,288,96z"></path><path style="fill:#34444C;" d="M249.6,34.4C232,13.6,205.6,0,176,0c-48.8,0-89.6,36.8-95.2,84.8L80,96h38.4 C156,96,192,83.2,220.8,59.2L249.6,34.4z"></path></g><path style="fill:#6B777C;" d="M188,0.8C184,0,180,0,176,0c-48.8,0-89.6,36.8-95.2,84.8L80,96h24l0.8-11.2 C110.4,40.8,144.8,6.4,188,0.8z"></path><g><polygon style="fill:#ECEFF1;" points="120,240 104,280 128,280 120,304 168,360 136,240 "></polygon><polygon style="fill:#ECEFF1;" points="248,240 264,280 240,280 248,304 200,360 232,240 "></polygon></g><path style="fill:#26A379;" d="M167.2,480V360L136,240h16l0,0c14.4,24,49.6,24,64,0l0,0h16l-32,120v120H167.2z"></path><g><path style="fill:#34444C;" d="M144.8,157.6c-20,0-36-16-36-36s16-36,36-36s36,16,36,36S164,157.6,144.8,157.6z M144.8,93.6 c-15.2,0-28,12.8-28,28s12.8,28,28,28s28-12.8,28-28S160,93.6,144.8,93.6z"></path><path style="fill:#34444C;" d="M224,157.6c-20,0-36-16-36-36s16-36,36-36s36,16,36,36S244,157.6,224,157.6z M224,93.6 c-15.2,0-28,12.8-28,28s12.8,28,28,28s28-12.8,28-28S239.2,93.6,224,93.6z"></path><path style="fill:#34444C;" d="M112.8,112h-24c-2.4,0-4-1.6-4-4s1.6-4,4-4h24c2.4,0,4,1.6,4,4S114.4,112,112.8,112z"></path><path style="fill:#34444C;" d="M280,112h-24c-2.4,0-4-1.6-4-4s1.6-4,4-4h24c2.4,0,4,1.6,4,4S282.4,112,280,112z"></path><path style="fill:#34444C;" d="M184.8,284c-59.2,0-108-48.8-108-108v-40c0-2.4,1.6-4,4-4s4,1.6,4,4v40c0,55.2,44.8,100,100,100 s100-44.8,100-100v-40c0-2.4,1.6-4,4-4s4,1.6,4,4v40C292.8,235.2,244,284,184.8,284z"></path></g><g><path style="fill:#6B777C;" d="M284.8,160h8c4.8,0,8-3.2,8-8v-24c0-4.8-3.2-8-8-8h-8c-4.8,0-8,3.2-8,8v24 C276.8,156,280,160,284.8,160z"></path><path style="fill:#6B777C;" d="M76.8,160h8c4.8,0,8-3.2,8-8v-24c0-4.8-3.2-8-8-8h-8c-4.8,0-8,3.2-8,8v24C68.8,156,72,160,76.8,160z "></path></g><g><path style="fill:#34444C;" d="M376,400h-78.4c-66.4,0-120-53.6-120-120c0-2.4,1.6-4,4-4s4,1.6,4,4c0,61.6,50.4,112,112,112H376 c2.4,0,4,1.6,4,4S378.4,400,376,400z"></path><circle style="fill:#34444C;" cx="408" cy="396" r="32"></circle></g><circle style="fill:#6B777C;" cx="408" cy="396" r="16"></circle></svg>